<svg width="628" height="465" viewBox="0 0 628 465" fill="none" xmlns="http://www.w3.org/2000/svg">
<path fill-rule="evenodd" clip-rule="evenodd" d="M371.629 318.016C436.36 279.176 436.36 185.361 371.629 146.52L151.452 14.4064C84.7993 -25.5872 0 22.4238 0 100.154V364.382C0 442.113 84.7992 490.124 151.452 450.13L371.629 318.016ZM206.407 243.766C219.354 235.998 219.354 217.235 206.407 209.467L152.779 177.288C139.448 169.289 122.488 178.891 122.488 194.437V258.795C122.488 274.341 139.448 283.944 152.779 275.945L206.407 243.766Z" fill="white"/>
<path fill-rule="evenodd" clip-rule="evenodd" d="M578.852 68.7447C644.339 107.454 644.339 202.207 578.852 240.916L509.488 281.917V252.768H425.488V308.502C377.768 303.11 336.37 263.263 336.37 208.974V100.687C336.37 23.2506 420.593 -24.8022 487.255 14.6014L578.852 68.7447ZM491.624 141.013C501.981 147.228 501.981 162.238 491.624 168.452L463.721 185.195C453.056 191.594 439.488 183.912 439.488 171.475V137.99C439.488 125.553 453.056 117.871 463.721 124.27L491.624 141.013Z" fill="white"/>
<path fill-rule="evenodd" clip-rule="evenodd" d="M336.37 256.379C336.37 202.089 377.768 162.242 425.488 156.85V201.768H509.488V183.436L578.852 224.437C644.339 263.146 644.339 357.899 578.852 396.608L487.255 450.751C420.593 490.155 336.37 442.102 336.37 364.666V256.379ZM494.624 324.452C504.981 318.238 504.981 303.228 494.624 297.013L466.721 280.27C456.056 273.871 442.488 281.553 442.488 293.99V327.475C442.488 339.912 456.056 347.594 466.721 341.195L494.624 324.452Z" fill="white"/>
</svg>
