<svg width="31" height="15" viewBox="0 0 31 15" fill="none" xmlns="http://www.w3.org/2000/svg">
<path d="M14.656 8.56H0.544V6.32H5.808V5.504H1.28V0.079999H13.92V2.32H4.416V3.264H14.096V5.504H9.392V6.32H14.656V8.56ZM11.088 14.416H4.064C1.856 14.416 0.912 13.184 0.912 11.728C0.912 10.256 1.904 9.024 4.112 9.024H11.136C13.344 9.024 14.336 10.256 14.336 11.728C14.336 13.184 13.296 14.416 11.088 14.416ZM10.432 11.312H4.832C4.32 11.312 4.032 11.456 4.032 11.728C4.032 11.984 4.336 12.128 4.832 12.128H10.432C10.928 12.128 11.232 11.984 11.232 11.728C11.232 11.456 10.944 11.312 10.432 11.312ZM26.0831 14.4H19.4911C17.2671 14.4 16.3231 12.96 16.3231 11.296C16.3231 9.632 17.3151 8.192 19.5391 8.192H26.1311C28.3551 8.192 29.3471 9.632 29.3471 11.296C29.3471 12.96 28.3071 14.4 26.0831 14.4ZM24.4191 7.408H15.9871V0.112H19.1231V1.296H21.2831V0.112H24.4191V7.408ZM28.8031 7.84H25.6671V0.0319996H28.8031V2.24H30.3711V4.928H28.8031V7.84ZM25.4111 10.704H20.2591C19.7471 10.704 19.4591 10.944 19.4591 11.296C19.4591 11.632 19.7631 11.872 20.2591 11.872H25.4111C25.9071 11.872 26.2111 11.632 26.2111 11.296C26.2111 10.944 25.9231 10.704 25.4111 10.704ZM21.2831 4.832V3.84H19.1231V4.832H21.2831Z" fill="#333333"/>
</svg>
